<?xml version="1.0" encoding="UTF-8" standalone="no"?>
<svg
   viewBox="0 0 16 16"
   version="1.1"
   id="svg12"
   sodipodi:docname="emojis.svg"
   width="16"
   height="16"
   inkscape:version="1.1.1 (1:1.1+202109281949+c3084ef5ed)"
   xmlns:inkscape="http://www.inkscape.org/namespaces/inkscape"
   xmlns:sodipodi="http://sodipodi.sourceforge.net/DTD/sodipodi-0.dtd"
   xmlns="http://www.w3.org/2000/svg"
   xmlns:svg="http://www.w3.org/2000/svg">
  <defs
     id="defs16" />
  <sodipodi:namedview
     id="namedview14"
     pagecolor="#000000"
     bordercolor="#666666"
     borderopacity="1.0"
     inkscape:pageshadow="2"
     inkscape:pageopacity="0"
     inkscape:pagecheckerboard="true"
     showgrid="false"
     width="16px"
     inkscape:snap-bbox="false"
     inkscape:zoom="10.469109"
     inkscape:cx="4.0595624"
     inkscape:cy="22.064916"
     inkscape:window-width="1366"
     inkscape:window-height="718"
     inkscape:window-x="0"
     inkscape:window-y="25"
     inkscape:window-maximized="1"
     inkscape:current-layer="svg12" />
  <g
     id="g23"
     transform="translate(0.647201,0.7424255)">
    <path
       fill="#ffcc4d"
       d="m 14.705598,7.2575743 c 0,4.0081977 -3.292012,7.2575747 -7.352799,7.2575747 C 3.2924199,14.515149 0,11.265772 0,7.2575743 0,3.2497805 3.2924199,0 7.352799,0 c 4.060787,0 7.352799,3.2497805 7.352799,7.2575743"
       id="path2"
       style="stroke-width:0.405835" />
    <ellipse
       fill="#664500"
       cx="4.6976213"
       cy="5.0399823"
       rx="1.021222"
       ry="2.2175922"
       id="ellipse4"
       style="stroke-width:0.405835" />
    <ellipse
       fill="#664500"
       cx="10.007977"
       cy="5.0399823"
       rx="1.021222"
       ry="2.2175922"
       id="ellipse6"
       style="stroke-width:0.405835" />
    <path
       fill="#664500"
       d="m 7.352799,8.8703686 c -1.4799553,0 -2.4619621,-0.1701495 -3.6763996,-0.4031983 -0.2773639,-0.052819 -0.8169776,0 -0.8169776,0.806397 0,1.6127947 1.877006,3.6287877 4.4933772,3.6287877 2.6159624,0 4.493377,-2.015993 4.493377,-3.6287877 0,-0.806397 -0.539614,-0.8596194 -0.816978,-0.806397 C 9.8147612,8.7002191 8.832754,8.8703686 7.352799,8.8703686 Z"
       id="path8"
       style="stroke-width:0.405835" />
    <path
       fill="#ffffff"
       d="m 3.6763994,9.2735673 c 0,0 1.2254666,0.4031987 3.6763996,0.4031987 2.450933,0 3.676399,-0.4031987 3.676399,-0.4031987 0,0 -0.816977,1.6127947 -3.676399,1.6127947 -2.8594219,0 -3.6763996,-1.6127947 -3.6763996,-1.6127947 z"
       id="path10"
       style="stroke-width:0.405835" />
  </g>
</svg>
