<?xml version="1.0" encoding="UTF-8" standalone="no"?>
<svg
   version="1.1"
   width="24"
   height="24"
   viewBox="0 0 24 24"
   id="svg4"
   sodipodi:docname="EmojiIcon.svg"
   inkscape:version="1.1.1 (3bf5ae0d25, 2021-09-20)"
   xmlns:inkscape="http://www.inkscape.org/namespaces/inkscape"
   xmlns:sodipodi="http://sodipodi.sourceforge.net/DTD/sodipodi-0.dtd"
   xmlns="http://www.w3.org/2000/svg"
   xmlns:svg="http://www.w3.org/2000/svg">
  <defs
     id="defs8" />
  <sodipodi:namedview
     id="namedview6"
     pagecolor="#505050"
     bordercolor="#eeeeee"
     borderopacity="1"
     inkscape:pageshadow="0"
     inkscape:pageopacity="0"
     inkscape:pagecheckerboard="0"
     showgrid="false"
     inkscape:zoom="31.708333"
     inkscape:cx="12"
     inkscape:cy="12.015769"
     inkscape:window-width="1920"
     inkscape:window-height="1029"
     inkscape:window-x="0"
     inkscape:window-y="24"
     inkscape:window-maximized="1"
     inkscape:current-layer="svg4" />
  <path
     d="M15,18C11.68,18 9,15.31 9,12C9,8.68 11.68,6 15,6A6,6 0 0,1 21,12A6,6 0 0,1 15,18M4,13A1,1 0 0,1 3,12A1,1 0 0,1 4,11A1,1 0 0,1 5,12A1,1 0 0,1 4,13M22,3H7.63C6.97,3 6.38,3.32 6,3.81L0,12L6,20.18C6.38,20.68 6.97,21 7.63,21H22A2,2 0 0,0 24,19V5C24,3.89 23.1,3 22,3M13,11A1,1 0 0,0 14,10A1,1 0 0,0 13,9A1,1 0 0,0 12,10A1,1 0 0,0 13,11M15,16C16.86,16 18.35,14.72 18.8,13H11.2C11.65,14.72 13.14,16 15,16M17,11A1,1 0 0,0 18,10A1,1 0 0,0 17,9A1,1 0 0,0 16,10A1,1 0 0,0 17,11Z"
     id="path2"
     style="fill:#a5efac;fill-opacity:1" />
</svg>
