<?xml version="1.0" encoding="UTF-8" standalone="no"?>
<svg
   height="16"
   viewBox="0 0 16 16"
   width="16"
   version="1.1"
   id="svg8"
   sodipodi:docname="code_edit.svg"
   inkscape:version="1.1 (1:1.1+202105261517+ce6663b3b7)"
   xmlns:inkscape="http://www.inkscape.org/namespaces/inkscape"
   xmlns:sodipodi="http://sodipodi.sourceforge.net/DTD/sodipodi-0.dtd"
   xmlns="http://www.w3.org/2000/svg"
   xmlns:svg="http://www.w3.org/2000/svg">
  <defs
     id="defs12" />
  <sodipodi:namedview
     id="namedview10"
     pagecolor="#000000"
     bordercolor="#666666"
     borderopacity="1.0"
     inkscape:pageshadow="2"
     inkscape:pageopacity="0"
     inkscape:pagecheckerboard="true"
     showgrid="false"
     inkscape:snap-global="false"
     inkscape:zoom="24.660349"
     inkscape:cx="17.518"
     inkscape:cy="7.9682571"
     inkscape:window-width="1366"
     inkscape:window-height="743"
     inkscape:window-x="0"
     inkscape:window-y="0"
     inkscape:window-maximized="1"
     inkscape:current-layer="svg8" />
  <g
     aria-label="Code"
     transform="scale(1.0259843,0.97467378)"
     id="text1247"
     style="font-size:4.94161px;line-height:1.25;letter-spacing:-0.762238px;fill:#8eef97;stroke-width:0.123539">
    <path
       d="m 4.5532684,7.1310068 q -0.494161,0 -0.7807744,-0.2767302 Q 3.4858806,6.5775464 3.4858806,6.0932687 V 4.4625374 q 0,-0.4842777 0.2866134,-0.7610079 0.2866134,-0.2767301 0.7807744,-0.2767301 0.4842777,0 0.7708911,0.2816717 0.2866134,0.2767302 0.2866134,0.7560663 H 5.166028 q 0,-0.3063798 -0.1630732,-0.4694529 -0.1581315,-0.1680147 -0.4496864,-0.1680147 -0.291555,0 -0.4595698,0.1630731 Q 3.9306255,4.151216 3.9306255,4.4575958 v 1.6356729 q 0,0.3063798 0.1630731,0.4743945 0.1680148,0.1630732 0.4595698,0.1630732 0.2915549,0 0.4496864,-0.1630732 Q 5.166028,6.3996485 5.166028,6.0932687 h 0.4447449 q 0,0.4793361 -0.2866134,0.7610079 -0.2866134,0.2767302 -0.7708911,0.2767302 z"
       style="font-family:'JetBrains Mono';-inkscape-font-specification:'JetBrains Mono'"
       id="path9" />
    <path
       d="m 6.7362223,7.1211235 q -0.494161,0 -0.7807743,-0.2767301 Q 5.6737762,6.5627216 5.6737762,6.0833855 V 5.3619104 q 0,-0.4842777 0.2816718,-0.7610079 0.2866133,-0.2767301 0.7807743,-0.2767301 0.494161,0 0.7758328,0.2767301 0.2866133,0.2767302 0.2866133,0.7560663 v 0.7264167 q 0,0.4793361 -0.2866133,0.7610079 -0.2816718,0.2767301 -0.7758328,0.2767301 z m 0,-0.3953288 q 0.291555,0 0.4546281,-0.1630731 Q 7.3539235,6.3996485 7.3539235,6.0833855 V 5.3619104 q 0,-0.316263 -0.1630731,-0.4793361 -0.1630731,-0.1630732 -0.4546281,-0.1630732 -0.2866134,0 -0.4546281,0.1630732 -0.1630731,0.1630731 -0.1630731,0.4793361 v 0.7214751 q 0,0.316263 0.1630731,0.4793361 0.1680147,0.1630731 0.4546281,0.1630731 z"
       style="font-family:'JetBrains Mono';-inkscape-font-specification:'JetBrains Mono'"
       id="path11" />
    <path
       d="m 8.7808112,7.1310068 q -0.405212,0 -0.6572341,-0.2717886 Q 7.8764966,6.5874297 7.8764966,6.1229183 V 5.3273192 q 0,-0.469453 0.2470805,-0.7412415 0.2470805,-0.2717886 0.6572341,-0.2717886 0.3063798,0 0.5040442,0.1531899 0.1976644,0.1531899 0.2322557,0.4150953 h 0.014825 L 9.5220527,4.264873 V 3.4742155 H 9.9667976 V 7.0815907 H 9.5220527 V 6.5627216 h -0.00494 Q 9.4825198,6.8295685 9.2848554,6.9827585 9.087191,7.1310068 8.7808112,7.1310068 Z M 8.9290595,6.7455612 q 0.2767302,0 0.4348617,-0.1729564 Q 9.5220527,6.3996485 9.5220527,6.0932687 V 5.3520272 q 0,-0.3063798 -0.1581315,-0.4793362 -0.1581315,-0.1729563 -0.4348617,-0.1729563 -0.2816718,0 -0.4447449,0.1680147 -0.1630731,0.1680148 -0.1630731,0.4842778 v 0.7412415 q 0,0.316263 0.1630731,0.4842777 0.1630731,0.1680148 0.4447449,0.1680148 z"
       style="font-family:'JetBrains Mono';-inkscape-font-specification:'JetBrains Mono'"
       id="path13" />
    <path
       d="m 11.141663,7.1310068 q -0.321205,0 -0.563344,-0.1284819 Q 10.341122,6.874043 10.207699,6.6417874 10.079217,6.4045901 10.079217,6.0932687 V 5.3520272 q 0,-0.316263 0.128482,-0.5485187 0.133423,-0.2322557 0.37062,-0.3607375 0.242139,-0.1284819 0.563344,-0.1284819 0.321205,0 0.558402,0.1284819 0.242139,0.1284818 0.370621,0.3607375 0.133423,0.2322557 0.133423,0.5485187 v 0.4793362 h -1.690031 v 0.2619053 q 0,0.3212046 0.163074,0.494161 0.163073,0.1680147 0.464511,0.1680147 0.256964,0 0.415095,-0.088949 0.158132,-0.093891 0.192723,-0.2767301 h 0.444745 q -0.04448,0.3409711 -0.33603,0.5435771 -0.286613,0.1976644 -0.716533,0.1976644 z M 10.514078,5.4953339 h 1.255169 V 5.3520272 q 0,-0.3212046 -0.163073,-0.494161 -0.158131,-0.1729563 -0.464511,-0.1729563 -0.301438,0 -0.464511,0.1729563 -0.163074,0.1729564 -0.163074,0.494161 z"
       style="font-family:'JetBrains Mono';-inkscape-font-specification:'JetBrains Mono'"
       id="path15" />
  </g>
  <path
     d="M 3,1 C 1.8954,1 1,1.8954 1,3 v 10 c 0,1.1046 0.89543,2 2,2 h 10 c 1.1046,0 2,-0.8954 2,-2 V 3 C 15,1.8954 14.10457,1 13,1 Z M 3,3 H 13 V 13 H 3 Z"
     fill="#8eef97"
     id="path4"
     sodipodi:nodetypes="sssssssssccccc" />
  <path
     d="m 4.1064416,7.9423021 v 4.0000009 h 1 V 7.9423021 Z"
     style="fill:#8eef97"
     id="path472" />
</svg>
