<?xml version="1.0" encoding="UTF-8" standalone="no"?>
<svg
   height="16"
   viewBox="0 0 16 16"
   width="16"
   version="1.1"
   id="svg4"
   sodipodi:docname="rakugo_text_parser.svg"
   inkscape:version="1.1 (c4e8f9ed74, 2021-05-24)"
   inkscape:export-filename="/home/jeremi360/DevProjects/Godot/Rakugo/addons/Rakugo/icons/rakugo_text_parser.png"
   inkscape:export-xdpi="96"
   inkscape:export-ydpi="96"
   xmlns:inkscape="http://www.inkscape.org/namespaces/inkscape"
   xmlns:sodipodi="http://sodipodi.sourceforge.net/DTD/sodipodi-0.dtd"
   xmlns="http://www.w3.org/2000/svg"
   xmlns:svg="http://www.w3.org/2000/svg"
   xmlns:rdf="http://www.w3.org/1999/02/22-rdf-syntax-ns#"
   xmlns:cc="http://creativecommons.org/ns#"
   xmlns:dc="http://purl.org/dc/elements/1.1/">
  <metadata
     id="metadata10">
    <rdf:RDF>
      <cc:Work
         rdf:about="">
        <dc:format>image/svg+xml</dc:format>
        <dc:type
           rdf:resource="http://purl.org/dc/dcmitype/StillImage" />
      </cc:Work>
    </rdf:RDF>
  </metadata>
  <defs
     id="defs8" />
  <sodipodi:namedview
     pagecolor="#ffffff"
     bordercolor="#666666"
     borderopacity="1"
     objecttolerance="10"
     gridtolerance="10"
     guidetolerance="10"
     inkscape:pageopacity="0"
     inkscape:pageshadow="2"
     inkscape:window-width="1920"
     inkscape:window-height="1010"
     id="namedview6"
     showgrid="false"
     inkscape:zoom="37.520854"
     inkscape:cx="4.650747"
     inkscape:cy="7.6890574"
     inkscape:window-x="0"
     inkscape:window-y="40"
     inkscape:window-maximized="1"
     inkscape:current-layer="svg4"
     inkscape:document-rotation="0"
     inkscape:pagecheckerboard="0"
     inkscape:snap-global="false" />
  <path
     d="M -14.801214,2.6188099 V 4.063022 H -3.5299642 V 2.6188099 Z m 0,2.8884243 v 1.4442121 h 2.817813 V 5.5072342 Z m 5.6356249,0 v 1.4442121 h 5.6356249 V 5.5072342 Z M -14.801214,8.3956584 V 9.8398703 H -3.5299642 V 8.3956584 Z m 0,2.8884246 v 1.444211 h 5.6356249 v -1.444211 z m 8.4534368,0 v 1.444211 h 2.817813 v -1.444211 z"
     fill="#a5efac"
     id="path2"
     sodipodi:nodetypes="cccccccccccccccccccccccccccccc"
     style="fill:#888a85;stroke-width:1.00865" />
  <g
     aria-label="Ra ku "
     transform="matrix(1.4203757,0,0,1.5802674,18.897828,-0.952587)"
     id="text15709"
     style="font-size:4.4678px;line-height:0.85;white-space:pre;shape-inside:url(#rect15711);fill:#888a85;fill-opacity:1">
    <path
       d="m -9.3223471,3.2934087 q 0.2639667,0 0.3774069,-0.098169 0.1156218,-0.098169 0.1156218,-0.3228684 0,-0.2225174 -0.1156218,-0.3185052 -0.1134402,-0.095988 -0.3774069,-0.095988 h -0.35341 V 3.293409 Z m -0.35341,0.5802905 V 5.106271 H -10.515651 V 1.8492273 h 1.2827471 q 0.6435552,0 0.9424266,0.2159727 0.301053,0.2159728 0.301053,0.682823 0,0.3228684 -0.1570711,0.5301149 -0.1548896,0.2072466 -0.4690318,0.3054161 0.1723419,0.039268 0.3075976,0.1788865 0.1374372,0.1374372 0.277056,0.4188563 L -7.5749311,5.106271 H -8.4693638 L -8.8664046,4.2969185 Q -8.9863895,4.0525857 -9.1107374,3.9631425 -9.2329039,3.8736992 -9.4379689,3.8736992 Z"
       style="font-weight:bold;-inkscape-font-specification:'sans-serif Bold';fill:#888a85;fill-opacity:1"
       id="path166312" />
    <path
       d="m -6.0151279,4.0067733 q -0.2443329,0 -0.3686808,0.082899 -0.1221664,0.082899 -0.1221664,0.2443328 0,0.1483449 0.098169,0.2334251 0.100351,0.082899 0.277056,0.082899 0.2203358,0 0.3708623,-0.1570711 0.1505265,-0.1592526 0.1505265,-0.3970408 v -0.089443 z m 1.193304,-0.2945083 v 1.394006 h -0.787537 V 4.7441349 q -0.1570711,0.2225174 -0.35341,0.3250499 -0.1963389,0.100351 -0.4777579,0.100351 -0.3795885,0 -0.6173767,-0.2203359 -0.2356067,-0.2225174 -0.2356067,-0.5759274 0,-0.4297639 0.2945084,-0.6304659 0.2966898,-0.2007019 0.9293373,-0.2007019 h 0.4603056 v -0.061083 q 0,-0.1854311 -0.1461634,-0.2705113 -0.1461634,-0.087262 -0.4559425,-0.087262 -0.2508775,0 -0.4668502,0.050175 -0.2159728,0.050175 -0.4014039,0.1505264 V 2.7283891 q 0.2508774,-0.061083 0.5039364,-0.091625 0.253059,-0.032723 0.506118,-0.032723 0.6610075,0 0.9533343,0.2617852 0.2945083,0.2596036 0.2945083,0.8464387 z"
       style="font-weight:bold;-inkscape-font-specification:'sans-serif Bold';fill:#888a85;fill-opacity:1"
       id="path166314" />
    <path
       d="m -10.550556,5.5094204 h 0.7809926 v 1.8477669 l 0.8987957,-0.8966142 h 0.9075219 l -1.193304,1.1213131 1.2871103,1.3220151 H -8.8162291 L -9.7695634,7.8851207 v 1.0187806 h -0.7809926 z"
       style="font-weight:bold;-inkscape-font-specification:'sans-serif Bold';fill:#888a85;fill-opacity:1"
       id="path166316" />
    <path
       d="M -7.6054729,7.9527486 V 6.4605731 h 0.7853555 v 0.2443328 q 0,0.1985205 -0.00218,0.4995734 -0.00218,0.2988714 -0.00218,0.3992224 0,0.2945083 0.015271,0.4254009 0.015271,0.128711 0.052357,0.1876127 0.047994,0.076354 0.1243479,0.1178033 0.078536,0.041449 0.1788866,0.041449 0.2443328,0 0.3839515,-0.1876127 0.1396188,-0.1876127 0.1396188,-0.5213888 v -1.206393 h 0.7809924 v 2.4433282 h -0.7809924 v -0.35341 q -0.176705,0.2137913 -0.3752254,0.3163238 -0.1963389,0.100351 -0.4341271,0.100351 -0.4232193,0 -0.6457367,-0.2596037 -0.2203359,-0.2596036 -0.2203359,-0.7548138 z"
       style="font-weight:bold;-inkscape-font-specification:'sans-serif Bold';fill:#888a85;fill-opacity:1"
       id="path166318" />
  </g>
</svg>
